<svg xmlns="http://www.w3.org/2000/svg" width="1200" height="630" viewBox="0 0 1200 630">
  <rect width="1200" height="630" fill="#f4f2ec"/>
  <rect x="40" y="40" width="1120" height="550" fill="none" stroke="#2a2723" stroke-width="2"/>
  <!-- blueprint grid dots -->
  <g fill="#2a2723" opacity="0.07">
    <rect x="80" y="80" width="2" height="2"/><rect x="136" y="80" width="2" height="2"/><rect x="192" y="80" width="2" height="2"/><rect x="248" y="80" width="2" height="2"/><rect x="304" y="80" width="2" height="2"/><rect x="360" y="80" width="2" height="2"/><rect x="416" y="80" width="2" height="2"/><rect x="472" y="80" width="2" height="2"/><rect x="528" y="80" width="2" height="2"/><rect x="584" y="80" width="2" height="2"/><rect x="640" y="80" width="2" height="2"/><rect x="696" y="80" width="2" height="2"/><rect x="752" y="80" width="2" height="2"/><rect x="808" y="80" width="2" height="2"/><rect x="864" y="80" width="2" height="2"/><rect x="920" y="80" width="2" height="2"/><rect x="976" y="80" width="2" height="2"/><rect x="1032" y="80" width="2" height="2"/>
  </g>
  <text x="80" y="90" font-family="Helvetica, Arial, sans-serif" font-size="11" letter-spacing="3" fill="#2a2723" opacity="0.45">01 // DOSSIER — kiarash-akbari.com</text>
  <text x="80" y="290" font-family="Helvetica, Arial, sans-serif" font-size="96" font-weight="700" letter-spacing="-3" fill="#2a2723">KIARASH</text>
  <text x="80" y="385" font-family="Helvetica, Arial, sans-serif" font-size="96" font-weight="700" letter-spacing="-3" fill="#2a2723">AKBARI</text>
  <text x="80" y="430" font-family="Helvetica, Arial, sans-serif" font-size="22" letter-spacing="6" fill="#dd5223">AI SOFTWARE ENGINEER</text>
  <text x="80" y="470" font-family="Helvetica, Arial, sans-serif" font-size="13" letter-spacing="2" fill="#2a2723" opacity="0.6">RAG PIPELINES · ANOMALY DETECTION · BACKEND SYSTEMS</text>
  <rect x="80" y="510" width="10" height="10" fill="#dd5223"/>
  <text x="100" y="519" font-family="Helvetica, Arial, sans-serif" font-size="10" letter-spacing="2" fill="#2a2723">KIA.SYS v5.2 — SIGNAL &gt; NOISE</text>
  <!-- corner pluses -->
  <g stroke="#2a2723" stroke-width="1" opacity="0.2">
    <line x1="40" y1="60" x2="40" y2="68"/><line x1="36" y1="64" x2="44" y2="64"/>
    <line x1="1160" y1="60" x2="1160" y2="68"/><line x1="1156" y1="64" x2="1164" y2="64"/>
    <line x1="40" y1="570" x2="40" y2="578"/><line x1="36" y1="574" x2="44" y2="574"/>
    <line x1="1160" y1="570" x2="1160" y2="578"/><line x1="1156" y1="574" x2="1164" y2="574"/>
  </g>
</svg>
